<?xml version="1.0" encoding="UTF-8"?>
<svg id="Warstwa_1" data-name="Warstwa 1" xmlns="http://www.w3.org/2000/svg" viewBox="0 0 47.08 43.3">
  <defs>
    <style>
      .cls-1 {
        fill: #fff;
      }

      .cls-1, .cls-2 {
        stroke-width: 0px;
      }

      .cls-2 {
        fill: #979797;
      }
    </style>
  </defs>
  <rect class="cls-1" x="4.71" y="12.97" width="37.68" height="17.87"/>
  <g>
    <path class="cls-2" d="M21.5,24.7h4.07v-8.13h-8.14v10.17h4.07v-2.04ZM21.5,18.6h2.04v4.07h-2.04v-4.07Z"/>
    <polygon class="cls-2" points="31.68 18.6 33.71 18.6 33.71 24.7 35.74 24.7 35.74 18.6 37.78 18.6 37.78 24.7 39.81 24.7 39.81 16.57 27.6 16.57 27.6 24.7 31.68 24.7 31.68 18.6"/>
    <path class="cls-2" d="M45.81,16.92l-7.04-12.19c-1.69-2.93-4.81-4.73-8.19-4.73h-14.08c-3.38,0-6.5,1.8-8.19,4.73L1.27,16.92c-1.69,2.93-1.69,6.53,0,9.46l7.04,12.19c1.69,2.93,4.81,4.73,8.19,4.73h14.08c3.38,0,6.5-1.8,8.19-4.73l7.04-12.19c1.69-2.93,1.69-6.53,0-9.46ZM41.84,26.74h-18.31v2.03h-8.14v-2.03H5.23v-12.2h36.61v12.2Z"/>
    <polygon class="cls-2" points="11.33 18.6 13.37 18.6 13.37 24.7 15.4 24.7 15.4 16.57 7.27 16.57 7.27 24.7 11.33 24.7 11.33 18.6"/>
  </g>
</svg>