<?xml version="1.0" encoding="utf-8"?>
<!-- Generator: Adobe Illustrator 28.2.0, SVG Export Plug-In . SVG Version: 6.00 Build 0)  -->
<svg version="1.1" id="Warstwa_1" xmlns="http://www.w3.org/2000/svg" xmlns:xlink="http://www.w3.org/1999/xlink" x="0px" y="0px"
	 viewBox="0 0 47.8 44" style="enable-background:new 0 0 47.8 44;" xml:space="preserve">
<style type="text/css">
	.st0{fill:#979797;}
	.st1{fill:#FFFFFF;}
</style>
<path class="st0" d="M37,24.5c0,2.9-1.4,5.3-3.7,7c-2.3,1.7-5.6,2.8-9.4,2.8s-7.1-1-9.4-2.8c-2.3-1.7-3.7-4.1-3.7-7s0.6-6.5,4.1-6.5
	c1.6,0,3,0.4,4.5,0.8s2.9,0.8,4.5,0.8s3-0.4,4.5-0.8s2.9-0.8,4.5-0.8C36.4,17.9,37,21.7,37,24.5z"/>
<path class="st0" d="M46.2,17.3l-7-12.2c-1.7-2.9-4.8-4.7-8.2-4.7H16.9c-3.4,0-6.5,1.8-8.2,4.7l-7,12.2c-1.7,2.9-1.7,6.5,0,9.5
	l7,12.2c1.7,2.9,4.8,4.7,8.2,4.7h14.1c3.4,0,6.5-1.8,8.2-4.7l7-12.2C47.9,23.8,47.9,20.2,46.2,17.3L46.2,17.3z M35.3,34.1
	c-3,2.2-7,3.5-11.4,3.5s-8.4-1.2-11.4-3.5c-3-2.3-5-5.6-5-9.6c0-3.4,0.6-6.5,2-9.1c-0.1-0.2-0.1-0.5-0.2-0.9
	c-0.1-0.9-0.2-2.1-0.2-3.1c0-1.1,0.2-2.2,0.3-3.3c0.1-0.5,0.2-1,0.8-1.3c0.6-0.3,1.2-0.2,1.8,0C14,7.2,15.9,8,17.6,9
	c1.9-0.6,3.9-0.8,6.3-0.8s4.4,0.3,6.3,0.8c1.8-0.9,3.6-1.7,5.6-2.3c0.6-0.2,1.2-0.3,1.8,0C38.1,7,38.2,7.5,38.3,8
	c0.2,1.1,0.3,2.2,0.3,3.3c0,1-0.1,2.2-0.2,3.1c0,0.4-0.1,0.6-0.2,0.9c1.4,2.6,2,5.7,2,9.1C40.3,28.5,38.3,31.8,35.3,34.1z"/>
<path class="st1" d="M20.6,25.3c0,2.3-1.1,4.1-2.5,4.1s-2.4-1.8-2.4-4.1s1.1-4.1,2.4-4.1S20.6,23,20.6,25.3z"/>
<path class="st1" d="M32.1,25.3c0,2.3-1.1,4.1-2.5,4.1s-2.5-1.8-2.5-4.1s1.1-4.1,2.5-4.1S32.1,23,32.1,25.3z"/>
<path class="st1" d="M38.2,15.4c0.1-0.2,0.1-0.5,0.2-0.9c0.1-0.9,0.2-2.1,0.2-3.1c0-1.1-0.2-2.2-0.3-3.3c-0.1-0.5-0.2-1-0.8-1.3
	c-0.6-0.3-1.2-0.2-1.8,0c-2,0.6-3.9,1.4-5.6,2.3c-1.9-0.6-3.9-0.8-6.3-0.8S19.5,8.4,17.7,9C15.9,8,14,7.2,12,6.7
	c-0.6-0.2-1.2-0.3-1.8,0C9.7,7,9.6,7.5,9.5,8c-0.2,1.1-0.3,2.2-0.3,3.3c0,1,0.1,2.2,0.2,3.1c0,0.4,0.1,0.6,0.2,0.9
	c-1.4,2.6-2,5.7-2,9.1c0,4,1.9,7.4,5,9.6c3,2.2,7,3.5,11.4,3.5s8.4-1.2,11.4-3.5c3-2.3,5-5.6,5-9.6C40.3,21.1,39.6,17.9,38.2,15.4z
	 M33.3,31.5c-2.3,1.8-5.6,2.8-9.4,2.8s-7.1-1-9.4-2.8c-2.3-1.7-3.7-4.1-3.7-7s0.6-6.5,4.1-6.5c1.6,0,3,0.4,4.5,0.8s2.9,0.8,4.5,0.8
	s3-0.4,4.5-0.8s2.9-0.8,4.5-0.8c3.5,0,4.1,3.8,4.1,6.5S35.6,29.8,33.3,31.5z"/>
</svg>
