<?xml version="1.0" encoding="UTF-8"?>
<svg id="Warstwa_1" data-name="Warstwa 1" xmlns="http://www.w3.org/2000/svg" viewBox="0 0 51.76 51.76">
  <defs>
    <style>
      .cls-1 {
        fill: none;
        stroke: #656564;
        stroke-miterlimit: 10;
        stroke-width: 3px;
      }

      .cls-2 {
        fill: #656564;
        stroke-width: 0px;
      }
    </style>
  </defs>
  <rect class="cls-1" x="1.5" y="1.5" width="48.76" height="48.76" rx="8.65" ry="8.65"/>
  <rect class="cls-1" x="8.53" y="5.47" width="34.71" height="34.71" rx="8.12" ry="8.12"/>
  <path class="cls-2" d="M30.87,23.39h0c-.51.51-1.37.15-1.37-.57v-14.43c0-.44-.36-.8-.8-.8h-5.63c-.44,0-.8.36-.8.8v14.44c0,.72-.87,1.07-1.37.57h0c-.31-.31-.82-.31-1.14,0l-3.98,3.98c-.31.31-.31.82,0,1.14l9.53,9.53c.31.31.82.31,1.14,0l4.55-4.55,4.99-4.99c.31-.31.31-.82,0-1.14l-3.98-3.98c-.31-.31-.82-.31-1.14,0Z"/>
</svg>